# xmcd CD database file
#
# Track frame offsets:
#	150
#	8330
#	25692
#	42663
#	59572
#	69418
#	88407
#	99357
#
# Disc length: 1372 seconds
#
# Revision: 2
# Processed by: cddbd v1.5.2PL0 Copyright (c) Steve Scherf et al.
# Submitted via: CDex 1.51
#
DISCID=60055a08
DTITLE=צ'רלי מגירה - דה אבטומטיק מיסטרזינגר ממבו שיק
DYEAR=2001
DGENRE=60's Rock
TTITLE0=גולגתה רוק
TTITLE1=אתמול היום ומחר
TTITLE2=הנערה שפחדה ממאפרות
TTITLE3=רסקו
TTITLE4=השחר העולה
TTITLE5=מחר כבר עבר
TTITLE6=ריקוד המוות של מדריכת ההצלה שופעת החזה
TTITLE7=הזאב הנוקם 2
EXTD=YEAR: 2001
EXTT0=
EXTT1=
EXTT2=
EXTT3=
EXTT4=
EXTT5=
EXTT6=
EXTT7=
PLAYORDER=
